<svg width="100" height="48" viewBox="0 0 100 48" fill="none" xmlns="http://www.w3.org/2000/svg">
<g clip-path="url(#clip0_337_5231)">
<path d="M29.9993 12C27.6793 12 25.4527 13.08 23.9993 14.7867C22.546 13.08 20.3193 12 17.9993 12C13.8927 12 10.666 15.2267 10.666 19.3333C10.666 24.3733 15.1993 28.48 22.066 34.72L23.9993 36.4667L25.9327 34.7067C32.7993 28.48 37.3327 24.3733 37.3327 19.3333C37.3327 15.2267 34.106 12 29.9993 12ZM24.1327 32.7333L23.9993 32.8667L23.866 32.7333C17.5193 26.9867 13.3327 23.1867 13.3327 19.3333C13.3327 16.6667 15.3327 14.6667 17.9993 14.6667C20.0527 14.6667 22.0527 15.9867 22.7593 17.8133H25.2527C25.946 15.9867 27.946 14.6667 29.9993 14.6667C32.666 14.6667 34.666 16.6667 34.666 19.3333C34.666 23.1867 30.4794 26.9867 24.1327 32.7333Z" fill="#002F52"/>
</g>
<g clip-path="url(#clip1_337_5231)">
<path d="M83.9997 15.9993H81.333C81.333 13.0527 78.9463 10.666 75.9997 10.666C73.053 10.666 70.6663 13.0527 70.6663 15.9993H67.9997C66.533 15.9993 65.333 17.1993 65.333 18.666V34.666C65.333 36.1327 66.533 37.3327 67.9997 37.3327H83.9997C85.4663 37.3327 86.6663 36.1327 86.6663 34.666V18.666C86.6663 17.1993 85.4663 15.9993 83.9997 15.9993ZM75.9997 13.3327C77.4663 13.3327 78.6663 14.5327 78.6663 15.9993H73.333C73.333 14.5327 74.533 13.3327 75.9997 13.3327ZM83.9997 34.666H67.9997V18.666H70.6663V21.3327C70.6663 22.066 71.2663 22.666 71.9997 22.666C72.733 22.666 73.333 22.066 73.333 21.3327V18.666H78.6663V21.3327C78.6663 22.066 79.2663 22.666 79.9997 22.666C80.733 22.666 81.333 22.066 81.333 21.3327V18.666H83.9997V34.666Z" fill="#002F52"/>
</g>
<defs>
<clipPath id="clip0_337_5231">
<rect width="32" height="32" fill="white" transform="translate(8 8)"/>
</clipPath>
<clipPath id="clip1_337_5231">
<rect width="32" height="32" fill="white" transform="translate(60 8)"/>
</clipPath>
</defs>
</svg>
